HIERARCHY
ROOT Hips
{
	OFFSET 0.000000 0.000000 0.000000 
	CHANNELS 6 Xposition Yposition Zposition Zrotation Yrotation Xrotation
	JOINT LeftUpLeg
	{
		OFFSET 1.363060 -1.794630 0.839290 
		CHANNELS 3 Zrotation Yrotation Xrotation
		JOINT LeftLeg
		{
			OFFSET 2.448110 -6.726130 0.000000 
			CHANNELS 3 Zrotation Yrotation Xrotation
			JOINT LeftFoot
			{
				OFFSET 2.562200 -7.039590 0.000000 
				CHANNELS 3 Zrotation Yrotation Xrotation
				JOINT LeftToeBase
				{
					OFFSET 0.157640 -0.433110 2.322550 
					CHANNELS 3 Zrotation Yrotation Xrotation
					End Site
					{
						OFFSET 0.000000 0.000000 0.000000 
					}
				}
			}
		}
	}
	JOINT RightUpLeg
	{
		OFFSET -1.305520 -1.794630 0.839290 
		CHANNELS 3 Zrotation Yrotation Xrotation
		JOINT RightLeg
		{
			OFFSET -2.542530 -6.985550 0.000000 
			CHANNELS 3 Zrotation Yrotation Xrotation
			JOINT RightFoot
			{
				OFFSET -2.568260 -7.056230 0.000000 
				CHANNELS 3 Zrotation Yrotation Xrotation
				JOINT RightToeBase
				{
					OFFSET -0.164730 -0.452590 2.363150 
					CHANNELS 3 Zrotation Yrotation Xrotation
					End Site
					{
						OFFSET 0.000000 0.000000 0.000000 
					}
				}
			}
		}
	}
	JOINT Spine
	{
		OFFSET 0.028270 2.035590 -0.193380 
		CHANNELS 3 Zrotation Yrotation Xrotation
		JOINT Spine1
		{
			OFFSET 0.056720 2.048850 -0.042750 
			CHANNELS 3 Zrotation Yrotation Xrotation
			JOINT Neck1
			{
				OFFSET -0.054170 1.746240 0.172020 
				CHANNELS 3 Zrotation Yrotation Xrotation
				JOINT Head
				{
					OFFSET 0.104070 1.761360 -0.123970 
					CHANNELS 3 Zrotation Yrotation Xrotation
					End Site
					{
						OFFSET 0.000000 0.000000 0.000000 
					}
				}
			}
			JOINT LeftArm
			{
				OFFSET 3.362410 1.200890 -0.311210 
				CHANNELS 3 Zrotation Yrotation Xrotation
				JOINT LeftForeArm
				{
					OFFSET 4.983000 -0.000000 -0.000000 
					CHANNELS 3 Zrotation Yrotation Xrotation
					JOINT LeftHand
					{
						OFFSET 3.483560 -0.000000 -0.000000 
						CHANNELS 3 Zrotation Yrotation Xrotation
						JOINT LeftHandIndex1
						{
							OFFSET 0.715260 -0.000000 -0.000000 
							CHANNELS 3 Zrotation Yrotation Xrotation
							End Site
							{
								OFFSET 0.000000 0.000000 0.000000 
							}
						}
					}
				}
			}
			JOINT RightArm
			{
				OFFSET -3.136600 1.374050 -0.404650 
				CHANNELS 3 Zrotation Yrotation Xrotation
				JOINT RightForeArm
				{
					OFFSET -5.241900 -0.000000 -0.000000 
					CHANNELS 3 Zrotation Yrotation Xrotation
					JOINT RightHand
					{
						OFFSET -3.444170 -0.000000 -0.000000 
						CHANNELS 3 Zrotation Yrotation Xrotation
						JOINT RightHandIndex1
						{
							OFFSET -0.622530 -0.000000 -0.000000 
							CHANNELS 3 Zrotation Yrotation Xrotation
							End Site
							{
								OFFSET 0.000000 0.000000 0.000000 
							}
						}
					}
				}
			}
		}
	}
}
MOTION
Frames: 7
Frame Time: 0.041667
0.930289 17.917569 -2.825201 -3.798113 -2.178435 -2.269390 -12.153934 -8.427814 -25.480829 3.732403 13.003559 38.412572 -1.635506 8.803379 6.964473 0.004400 0.429500 1.180100 31.852345 9.226240 -1.164653 -1.170279 -7.035111 22.798478 1.456655 -7.362964 -2.152510 -0.027900 -1.078600 2.965100 1.153788 2.718674 -1.219092 1.078866 1.810922 -2.020402 2.531408 -2.077138 14.981083 2.590500 -1.684100 9.890500 -84.628571 2.954543 9.627495 9.446647 -17.987416 -1.678529 -1.692831 -3.331945 11.968810 -7.125000 0.000000 0.000000 78.601216 6.008566 16.266617 -14.891185 22.369677 -3.986908 1.318654 -0.732908 5.578340 7.125000 0.000000 0.000000 
0.932441 17.906500 -2.709798 -3.708202 -2.356589 -2.103045 -12.011009 -9.038277 -25.155739 3.114874 12.294295 35.844200 -1.894428 9.789701 7.135582 0.007600 0.563000 1.547100 31.689458 9.129997 -0.949230 -1.166822 -7.021686 22.791768 1.392270 -7.118441 -2.503536 -0.025700 -1.035300 2.846100 1.115192 2.801771 -1.349401 1.034585 1.862773 -2.461448 2.549072 -1.957819 15.070010 2.609400 -1.634500 9.827200 -84.572036 3.677563 9.514537 9.341406 -17.826342 -1.615684 -1.615793 -3.477069 12.091780 -7.125000 0.000000 0.000000 78.675228 5.747553 16.738093 -15.260270 22.882037 -4.191768 1.270098 -0.652009 5.133603 7.125000 0.000000 0.000000 
0.936951 17.896354 -2.591424 -3.888485 -2.566144 -1.827367 -11.544949 -9.614884 -24.943651 2.519757 11.567544 33.300310 -2.097184 10.476714 6.957846 0.010800 -0.671500 -1.845300 31.840643 9.085317 -0.776244 -1.160070 -7.002116 22.758604 1.347275 -6.952784 -2.767083 -0.017300 -0.849800 2.335600 1.143830 2.897059 -1.362765 1.025600 1.915424 -2.375215 2.470499 -1.882354 15.011235 2.585500 -1.608100 9.776800 -84.629636 3.490831 8.875785 9.019443 -17.240199 -1.484714 -1.622343 -3.401249 12.890937 -7.125000 0.000000 0.000000 78.529515 5.975165 17.325539 -15.608803 23.357722 -4.381142 1.264698 -0.559436 4.521631 7.125000 0.000000 0.000000 
0.938796 17.886105 -2.474382 -4.189166 -2.829420 -1.697762 -10.885145 -10.195299 -24.598876 1.973256 10.827541 30.806302 -2.237229 11.030161 7.344957 0.026700 -1.055500 -2.901400 32.166137 9.037682 -0.404595 -1.147057 -6.962528 22.672123 1.314093 -6.828453 -2.934135 -0.019400 -0.899000 2.470900 1.178953 3.073645 -1.295419 0.955246 2.005043 -2.067644 2.336095 -1.943550 14.988640 2.506200 -1.642400 9.831100 -84.666871 2.997553 8.450515 8.643752 -16.523365 -1.316829 -1.618097 -3.404667 13.320183 -7.125000 0.000000 0.000000 78.471310 6.494978 17.532698 -15.906347 23.744535 -4.534738 1.290759 -0.539846 4.253519 7.125000 0.000000 0.000000 
0.942793 17.886412 -2.349449 -4.070714 -2.991518 -1.565401 -10.694091 -10.913489 -24.148057 1.477301 10.093010 28.455502 -2.354023 11.465845 7.587834 0.033800 -1.186100 -3.261100 31.933003 8.826032 -0.083658 -1.117058 -6.893524 22.494761 1.237283 -6.531266 -3.141366 -0.027600 -1.072200 2.947600 1.170812 3.144092 -1.284724 1.015763 2.045779 -1.910879 2.325612 -1.904031 15.142931 2.518000 -1.638600 9.933200 -84.774058 3.265377 8.378042 8.555117 -16.378520 -1.280345 -1.571836 -3.439268 13.217945 -7.125000 0.000000 0.000000 78.393279 6.689926 17.944033 -16.220611 24.174982 -4.704690 1.328700 -0.594892 3.826072 7.125000 0.000000 0.000000 
0.946277 17.887335 -2.224822 -3.998924 -2.990740 -1.366340 -10.488092 -11.564325 -23.904837 1.026952 9.381439 26.231465 -2.401190 11.664044 7.844145 0.051500 -1.464000 -4.026400 31.759834 8.646576 0.197974 -1.083406 -6.816693 22.290529 1.186912 -6.352085 -3.474729 -0.029700 -1.112400 3.058100 1.162405 3.113651 -1.258379 1.047252 2.037511 -1.622080 2.342973 -1.799082 15.354361 2.541000 -1.599500 10.082600 -84.873617 3.613593 8.440461 8.649104 -16.594927 -1.343679 -1.571334 -3.353509 13.235583 -7.125000 0.000000 0.000000 78.358966 6.936223 18.344805 -16.572042 24.651697 -4.900356 1.351809 -0.612027 3.534529 7.125000 0.000000 0.000000 
0.949659 17.883030 -2.097429 -4.040665 -3.021533 -1.205989 -10.174563 -12.160198 -23.705477 0.633321 8.706862 24.177328 -2.428188 11.761364 7.960104 0.055700 -1.523200 -4.189600 31.733061 8.459590 0.534349 -1.060887 -6.756482 22.139793 1.167426 -6.297858 -3.793896 -0.018900 -0.888200 2.441100 1.156219 3.128856 -1.236042 0.991497 2.050880 -1.379941 2.268794 -1.792786 15.414724 2.482900 -1.595300 10.152500 -84.845185 3.632976 8.228988 8.516204 -16.381952 -1.325372 -1.655933 -3.126316 13.611267 -7.125000 0.000000 0.000000 78.376782 7.207700 18.697101 -16.925786 25.111701 -5.098688 1.362786 -0.564203 3.107593 7.125000 0.000000 0.000000 
